<svg width="512" height="512" viewBox="0 0 512 512" fill="none" xmlns="http://www.w3.org/2000/svg">
<g clip-path="url(#clip0_269_77)">
<path d="M256 426.667C301.248 426.616 344.628 408.619 376.623 376.623C408.619 344.628 426.616 301.248 426.667 256V170.667C426.667 125.403 408.686 81.9933 376.68 49.9871C344.673 17.9809 301.264 0 256 0C210.736 0 167.327 17.9809 135.32 49.9871C103.314 81.9933 85.3333 125.403 85.3333 170.667V256C85.3841 301.248 103.381 344.628 135.377 376.623C167.372 408.619 210.752 426.616 256 426.667ZM256 42.6667C286.22 42.7228 315.447 53.4585 338.518 72.977C361.589 92.4955 377.018 119.54 382.08 149.333H320C314.342 149.333 308.916 151.581 304.915 155.582C300.914 159.583 298.667 165.009 298.667 170.667C298.667 176.325 300.914 181.751 304.915 185.752C308.916 189.752 314.342 192 320 192H384V234.667H320C314.342 234.667 308.916 236.914 304.915 240.915C300.914 244.916 298.667 250.342 298.667 256C298.667 261.658 300.914 267.084 304.915 271.085C308.916 275.086 314.342 277.333 320 277.333H382.08C377.066 307.146 361.649 334.218 338.568 353.742C315.486 373.267 286.232 383.98 256 383.98C225.768 383.98 196.514 373.267 173.432 353.742C150.351 334.218 134.934 307.146 129.92 277.333H192C197.658 277.333 203.084 275.086 207.085 271.085C211.086 267.084 213.333 261.658 213.333 256C213.333 250.342 211.086 244.916 207.085 240.915C203.084 236.914 197.658 234.667 192 234.667H128V192H192C197.658 192 203.084 189.752 207.085 185.752C211.086 181.751 213.333 176.325 213.333 170.667C213.333 165.009 211.086 159.583 207.085 155.582C203.084 151.581 197.658 149.333 192 149.333H129.92C134.982 119.54 150.411 92.4955 173.482 72.977C196.553 53.4585 225.78 42.7228 256 42.6667Z" fill="black"/>
<path d="M490.667 256C485.009 256 479.582 258.248 475.582 262.248C471.581 266.249 469.333 271.675 469.333 277.333C469.277 328.238 449.03 377.041 413.035 413.035C377.041 449.03 328.238 469.277 277.333 469.333H234.667C183.764 469.271 134.964 449.023 98.9708 413.029C62.9772 377.036 42.7288 328.236 42.6667 277.333C42.6667 271.675 40.4191 266.249 36.4183 262.248C32.4175 258.248 26.9913 256 21.3333 256C15.6754 256 10.2492 258.248 6.24839 262.248C2.24761 266.249 0 271.675 0 277.333C0.0733967 339.548 24.8207 399.194 68.8133 443.187C112.806 487.179 172.452 511.927 234.667 512H277.333C339.548 511.927 399.194 487.179 443.187 443.187C487.179 399.194 511.927 339.548 512 277.333C512 271.675 509.752 266.249 505.752 262.248C501.751 258.248 496.325 256 490.667 256Z" fill="black"/>
<path d="M45.5017 480.502L472.502 53.5017" stroke="black" stroke-width="47" stroke-linecap="round"/>
</g>
<defs>
<clipPath id="clip0_269_77">
<rect width="512" height="512" fill="white"/>
</clipPath>
</defs>
</svg>
