<svg width="24" height="24" viewBox="0 0 24 24" fill="none" xmlns="http://www.w3.org/2000/svg">
<path d="M15.8499 8.71009L16.565 8.93634L16.5654 8.93496L15.8499 8.71009ZM14.2299 13.8301L13.5148 13.6038L13.5116 13.6139L13.5087 13.6241L14.2299 13.8301ZM15.2899 8.14009L15.5136 8.85595L15.5148 8.85559L15.2899 8.14009ZM10.1699 9.74009L9.94619 9.02423L9.93943 9.02634L9.93272 9.02858L10.1699 9.74009ZM9.72989 10.1801L10.4459 10.4034L10.4486 10.3948L10.451 10.3861L9.72989 10.1801ZM8.12989 15.3101L8.84352 15.541L8.84588 15.5334L8.12989 15.3101ZM8.68989 15.8701L8.46538 15.1545L8.45903 15.1565L8.68989 15.8701ZM13.7899 14.2701L13.5839 13.5489L13.5746 13.5516L13.5654 13.5545L13.7899 14.2701ZM11.9999 1.25009C6.05519 1.25009 1.24989 6.06637 1.24989 12.0001H2.74989C2.74989 6.89382 6.88459 2.75009 11.9999 2.75009V1.25009ZM22.7499 12.0001C22.7499 6.06588 17.9341 1.25009 11.9999 1.25009V2.75009C17.1057 2.75009 21.2499 6.89431 21.2499 12.0001H22.7499ZM11.9999 22.7501C17.9336 22.7501 22.7499 17.9448 22.7499 12.0001H21.2499C21.2499 17.1154 17.1062 21.2501 11.9999 21.2501V22.7501ZM1.24989 12.0001C1.24989 17.9443 6.05568 22.7501 11.9999 22.7501V21.2501C6.88411 21.2501 2.74989 17.1159 2.74989 12.0001H1.24989ZM15.1348 8.48384L13.5148 13.6038L14.945 14.0563L16.565 8.93634L15.1348 8.48384ZM15.5148 8.85559C15.2634 8.9346 15.07 8.69028 15.1344 8.48522L16.5654 8.93496C16.8498 8.0299 16.0164 7.12559 15.065 7.4246L15.5148 8.85559ZM10.3936 10.456L15.5136 8.85595L15.0662 7.42423L9.94619 9.02423L10.3936 10.456ZM10.451 10.3861C10.4429 10.4145 10.429 10.433 10.4196 10.4423C10.4151 10.4467 10.4116 10.4491 10.4097 10.4502C10.4087 10.4508 10.4081 10.4512 10.4077 10.4514C10.4074 10.4515 10.4073 10.4515 10.4072 10.4516C10.4071 10.4516 10.4071 10.4516 10.4071 10.4516L9.93272 9.02858C9.52094 9.16584 9.14581 9.49434 9.00875 9.97405L10.451 10.3861ZM8.84588 15.5334L10.4459 10.4034L9.01391 9.95678L7.41391 15.0868L8.84588 15.5334ZM8.45903 15.1565C8.58676 15.1152 8.70663 15.1637 8.77147 15.2285C8.83631 15.2934 8.8848 15.4132 8.84348 15.541L7.41631 15.0792C7.11794 16.0014 7.99853 16.882 8.92076 16.5837L8.45903 15.1565ZM13.5654 13.5545L8.46539 15.1545L8.9144 16.5857L14.0144 14.9857L13.5654 13.5545ZM13.5087 13.6241C13.5153 13.601 13.5261 13.5858 13.5358 13.576C13.5456 13.5663 13.5608 13.5555 13.5839 13.5489L13.9959 14.9912C14.4551 14.86 14.8198 14.4953 14.951 14.0361L13.5087 13.6241Z" fill="#9699AA"/>
</svg>
