<svg width="39" height="12" viewBox="0 0 39 12" fill="none" xmlns="http://www.w3.org/2000/svg">
<path d="M2.79637 9.45508C4.06102 9.45508 5.10008 8.40918 5.10008 7.15137C5.10008 5.88672 4.06102 4.84082 2.79637 4.84082C1.53172 4.84082 0.492657 5.88672 0.492657 7.15137C0.492657 8.40918 1.53172 9.45508 2.79637 9.45508ZM20.4057 9.50977H15.9282V1.13574H14.1645V11H20.4057V9.50977ZM21.6105 11H23.3127V3.75391H21.6105V11ZM22.4582 2.80371C22.9914 2.80371 23.4084 2.39355 23.4084 1.88086C23.4084 1.36133 22.9914 0.951172 22.4582 0.951172C21.9318 0.951172 21.5148 1.36133 21.5148 1.88086C21.5148 2.39355 21.9318 2.80371 22.4582 2.80371ZM31.1893 3.75391H29.412L27.7303 9.4209H27.6961L26.0145 3.75391H24.1961L26.7664 11H28.6395L31.1893 3.75391ZM34.9644 4.92285C35.9419 4.92285 36.5982 5.64062 36.6323 6.66602H33.2486C33.3169 5.6543 34.0073 4.92285 34.9644 4.92285ZM36.6392 8.83301C36.4546 9.43457 35.853 9.83105 35.0601 9.83105C33.9458 9.83105 33.2349 9.05176 33.2349 7.88965V7.78711H38.3003V7.2334C38.3003 5.03223 37.0152 3.60352 34.9575 3.60352C32.8657 3.60352 31.5396 5.11426 31.5396 7.4043C31.5396 9.71484 32.8521 11.1436 35.0259 11.1436C36.7417 11.1436 38.0132 10.2002 38.232 8.83301H36.6392Z" fill="#FF2060"/>
</svg>
