<svg width="53" height="25" viewBox="0 0 53 25" fill="none" xmlns="http://www.w3.org/2000/svg">
<rect width="53" height="25" rx="12.5" fill="#FF2060"/>
<path d="M21.0947 17H27.3359V15.5166H22.8584V7.13574H21.0947V17ZM29.832 8.71484C30.3652 8.71484 30.7754 8.29102 30.7754 7.78516C30.7754 7.26562 30.3652 6.84863 29.832 6.84863C29.2988 6.84863 28.8818 7.26562 28.8818 7.78516C28.8818 8.29102 29.2988 8.71484 29.832 8.71484ZM28.9775 17H30.6797V9.75391H28.9775V17ZM34.584 17H36.457L39.0068 9.75391H37.2295L35.5547 15.4209H35.5137L33.832 9.75391H32.0205L34.584 17ZM43.2188 17.1436C45.1123 17.1436 46.1787 16.0225 46.4043 14.9082L46.4248 14.833H44.832L44.8184 14.8809C44.6543 15.3662 44.1006 15.8174 43.2529 15.8174C42.1455 15.8174 41.4482 15.0654 41.4209 13.7939H46.4932V13.2471C46.4932 11.0596 45.208 9.60352 43.1367 9.60352C41.0654 9.60352 39.7324 11.1074 39.7324 13.3906V13.3975C39.7324 15.7012 41.0449 17.1436 43.2188 17.1436ZM43.1572 10.9365C44.0596 10.9365 44.7158 11.5107 44.8389 12.6592H41.4414C41.5781 11.5449 42.2549 10.9365 43.1572 10.9365Z" fill="#FBFBFF"/>
<path d="M15.7273 12.6574C15.6932 12.704 15.5341 12.9023 15.4091 13.0306L15.3409 13.1006C14.3864 14.1621 12.0114 15.7602 10.8068 16.2734C10.8068 16.285 10.0909 16.5883 9.75 16.6H9.70456C9.1818 16.6 8.6932 16.2967 8.4432 15.8068C8.3068 15.5385 8.1818 14.757 8.17044 14.7453C8.0682 14.0454 8 12.9735 8 11.7942C8 10.5577 8.0682 9.43792 8.1932 8.74968C8.1932 8.73804 8.3182 8.10816 8.39772 7.89816C8.52272 7.5949 8.75 7.33828 9.03408 7.17497C9.26136 7.05832 9.5 7 9.75 7C10.0114 7.01166 10.5 7.1878 10.6932 7.26829C11.9659 7.78153 14.3977 9.46124 15.3296 10.4877C15.4886 10.651 15.6591 10.8493 15.7046 10.896C15.8977 11.1526 16 11.4676 16 11.807C16 12.1091 15.9091 12.4124 15.7273 12.6574Z" fill="#FBFBFF"/>
</svg>
