<svg width="53" height="25" viewBox="0 0 53 25" fill="none" xmlns="http://www.w3.org/2000/svg">
<rect width="53" height="25" rx="12.5" fill="#FF2060"/>
<path d="M10.5 15.4551C11.7646 15.4551 12.8037 14.4092 12.8037 13.1514C12.8037 11.8867 11.7646 10.8408 10.5 10.8408C9.23535 10.8408 8.19629 11.8867 8.19629 13.1514C8.19629 14.4092 9.23535 15.4551 10.5 15.4551ZM28.1094 15.5098H23.6318V7.13574H21.8682V17H28.1094V15.5098ZM29.7441 17H31.4463V9.75391H29.7441V17ZM30.5918 8.80371C31.125 8.80371 31.542 8.39355 31.542 7.88086C31.542 7.36133 31.125 6.95117 30.5918 6.95117C30.0654 6.95117 29.6484 7.36133 29.6484 7.88086C29.6484 8.39355 30.0654 8.80371 30.5918 8.80371ZM39.7529 9.75391H37.9756L36.2939 15.4209H36.2598L34.5781 9.75391H32.7598L35.3301 17H37.2031L39.7529 9.75391ZM43.958 10.9229C44.9355 10.9229 45.5918 11.6406 45.626 12.666H42.2422C42.3105 11.6543 43.001 10.9229 43.958 10.9229ZM45.6328 14.833C45.4482 15.4346 44.8467 15.8311 44.0537 15.8311C42.9395 15.8311 42.2285 15.0518 42.2285 13.8896V13.7871H47.2939V13.2334C47.2939 11.0322 46.0088 9.60352 43.9512 9.60352C41.8594 9.60352 40.5332 11.1143 40.5332 13.4043C40.5332 15.7148 41.8457 17.1436 44.0195 17.1436C45.7354 17.1436 47.0068 16.2002 47.2256 14.833H45.6328Z" fill="#FBFBFF"/>
</svg>
