<svg width="80" height="25" viewBox="0 0 80 25" fill="none" xmlns="http://www.w3.org/2000/svg">
<rect width="80" height="25" rx="12.5" fill="#EAC91D"/>
<path d="M12.0859 12.9805C12.0859 12.1055 11.3887 11.4082 10.5137 11.4082H10.4932C9.61816 11.4082 8.9209 12.1055 8.9209 12.9805V13.001C8.9209 13.876 9.61816 14.5732 10.4932 14.5732H10.5137C11.3887 14.5732 12.0859 13.876 12.0859 13.001V12.9805ZM21.8682 17H23.6318V13.7393H25.6689C27.665 13.7393 29.0254 12.4131 29.0254 10.4443V10.4307C29.0254 8.45508 27.665 7.13574 25.6689 7.13574H21.8682V17ZM25.2314 8.57812C26.4961 8.57812 27.2344 9.25488 27.2344 10.4375V10.4512C27.2344 11.6338 26.4961 12.3174 25.2314 12.3174H23.6318V8.57812H25.2314ZM32.2529 17.123C33.21 17.123 34.0166 16.6445 34.4336 15.8857H34.4746V17H36.1768V12.0166C36.1768 10.5605 35.0078 9.60352 33.1963 9.60352C31.3574 9.60352 30.2432 10.5674 30.1406 11.8525L30.1338 11.9346H31.7129L31.7266 11.873C31.8359 11.3398 32.3281 10.9639 33.1348 10.9639C33.9961 10.9639 34.4746 11.4082 34.4746 12.1396V12.6387L32.5811 12.7549C30.8242 12.8643 29.8262 13.6367 29.8262 14.9219V14.9355C29.8262 16.2275 30.8037 17.123 32.2529 17.123ZM31.5215 14.8672V14.8604C31.5215 14.2861 31.9795 13.9238 32.8203 13.8691L34.4746 13.7666V14.3135C34.4746 15.1748 33.7363 15.8242 32.7588 15.8242C32.0137 15.8242 31.5215 15.4619 31.5215 14.8672ZM40.5186 17.1436C41.6123 17.1436 42.3574 16.6377 42.7334 15.8652H42.7676V17H44.4697V9.75391H42.7676V13.9512C42.7676 15.0039 42.1455 15.708 41.168 15.708C40.1973 15.708 39.7188 15.127 39.7188 14.1016V9.75391H38.0166V14.4365C38.0166 16.1182 38.9258 17.1436 40.5186 17.1436ZM49.2012 17.1436C50.9785 17.1436 52.2432 16.2275 52.2432 14.8604V14.8535C52.2432 13.8008 51.6621 13.2129 50.165 12.8779L48.9551 12.6113C48.2031 12.4404 47.9229 12.167 47.9229 11.75V11.7432C47.9229 11.21 48.3945 10.8613 49.1465 10.8613C49.9395 10.8613 50.4043 11.2852 50.4795 11.8662L50.4863 11.9209H52.0723L52.0654 11.8457C52.0039 10.5947 50.9512 9.60352 49.1465 9.60352C47.3965 9.60352 46.2412 10.499 46.2412 11.8252V11.832C46.2412 12.9053 46.9385 13.582 48.3262 13.8896L49.5293 14.1562C50.2812 14.3271 50.5342 14.5732 50.5342 15.0107V15.0176C50.5342 15.5508 50.0352 15.8857 49.208 15.8857C48.3467 15.8857 47.875 15.5166 47.7451 14.8945L47.7314 14.833H46.0566L46.0635 14.8945C46.2139 16.2412 47.3008 17.1436 49.2012 17.1436ZM57.0156 17.1436C58.9092 17.1436 59.9756 16.0225 60.2012 14.9082L60.2217 14.833H58.6289L58.6152 14.8809C58.4512 15.3662 57.8975 15.8174 57.0498 15.8174C55.9424 15.8174 55.2451 15.0654 55.2178 13.7939H60.29V13.2471C60.29 11.0596 59.0049 9.60352 56.9336 9.60352C54.8623 9.60352 53.5293 11.1074 53.5293 13.3906V13.3975C53.5293 15.7012 54.8418 17.1436 57.0156 17.1436ZM56.9541 10.9365C57.8564 10.9365 58.5127 11.5107 58.6357 12.6592H55.2383C55.375 11.5449 56.0518 10.9365 56.9541 10.9365ZM64.584 17.1436C65.6299 17.1436 66.4297 16.624 66.8398 15.7695H66.8809V17H68.583V7.13574H66.8809V10.998H66.8398C66.4297 10.1299 65.6025 9.60352 64.5771 9.60352C62.7588 9.60352 61.5898 11.0322 61.5898 13.3701V13.377C61.5898 15.708 62.752 17.1436 64.584 17.1436ZM65.0967 15.708C64.0029 15.708 63.3262 14.8193 63.3262 13.377V13.3701C63.3262 11.9277 64.0098 11.0391 65.0967 11.0391C66.1426 11.0391 66.8809 11.9551 66.8809 13.3701V13.377C66.8809 14.7988 66.1494 15.708 65.0967 15.708Z" fill="#FBFBFF"/>
</svg>
