<svg width="80" height="25" viewBox="0 0 80 25" fill="none" xmlns="http://www.w3.org/2000/svg">
<rect width="80" height="25" rx="12.5" fill="#F9D143"/>
<path d="M24.4658 17H26.2295V13.7393H28.2666C30.2627 13.7393 31.623 12.4131 31.623 10.4443V10.4307C31.623 8.45508 30.2627 7.13574 28.2666 7.13574H24.4658V17ZM27.8291 8.57812C29.0938 8.57812 29.832 9.25488 29.832 10.4375V10.4512C29.832 11.6338 29.0938 12.3174 27.8291 12.3174H26.2295V8.57812H27.8291ZM34.8506 17.123C35.8076 17.123 36.6143 16.6445 37.0312 15.8857H37.0723V17H38.7744V12.0166C38.7744 10.5605 37.6055 9.60352 35.7939 9.60352C33.9551 9.60352 32.8408 10.5674 32.7383 11.8525L32.7314 11.9346H34.3105L34.3242 11.873C34.4336 11.3398 34.9258 10.9639 35.7324 10.9639C36.5938 10.9639 37.0723 11.4082 37.0723 12.1396V12.6387L35.1787 12.7549C33.4219 12.8643 32.4238 13.6367 32.4238 14.9219V14.9355C32.4238 16.2275 33.4014 17.123 34.8506 17.123ZM34.1191 14.8672V14.8604C34.1191 14.2861 34.5771 13.9238 35.418 13.8691L37.0723 13.7666V14.3135C37.0723 15.1748 36.334 15.8242 35.3564 15.8242C34.6113 15.8242 34.1191 15.4619 34.1191 14.8672ZM43.1162 17.1436C44.21 17.1436 44.9551 16.6377 45.3311 15.8652H45.3652V17H47.0674V9.75391H45.3652V13.9512C45.3652 15.0039 44.7432 15.708 43.7656 15.708C42.7949 15.708 42.3164 15.127 42.3164 14.1016V9.75391H40.6143V14.4365C40.6143 16.1182 41.5234 17.1436 43.1162 17.1436ZM51.7988 17.1436C53.5762 17.1436 54.8408 16.2275 54.8408 14.8604V14.8535C54.8408 13.8008 54.2598 13.2129 52.7627 12.8779L51.5527 12.6113C50.8008 12.4404 50.5205 12.167 50.5205 11.75V11.7432C50.5205 11.21 50.9922 10.8613 51.7441 10.8613C52.5371 10.8613 53.002 11.2852 53.0771 11.8662L53.084 11.9209H54.6699L54.6631 11.8457C54.6016 10.5947 53.5488 9.60352 51.7441 9.60352C49.9941 9.60352 48.8389 10.499 48.8389 11.8252V11.832C48.8389 12.9053 49.5361 13.582 50.9238 13.8896L52.127 14.1562C52.8789 14.3271 53.1318 14.5732 53.1318 15.0107V15.0176C53.1318 15.5508 52.6328 15.8857 51.8057 15.8857C50.9443 15.8857 50.4727 15.5166 50.3428 14.8945L50.3291 14.833H48.6543L48.6611 14.8945C48.8115 16.2412 49.8984 17.1436 51.7988 17.1436ZM59.6133 17.1436C61.5068 17.1436 62.5732 16.0225 62.7988 14.9082L62.8193 14.833H61.2266L61.2129 14.8809C61.0488 15.3662 60.4951 15.8174 59.6475 15.8174C58.54 15.8174 57.8428 15.0654 57.8154 13.7939H62.8877V13.2471C62.8877 11.0596 61.6025 9.60352 59.5312 9.60352C57.46 9.60352 56.127 11.1074 56.127 13.3906V13.3975C56.127 15.7012 57.4395 17.1436 59.6133 17.1436ZM59.5518 10.9365C60.4541 10.9365 61.1104 11.5107 61.2334 12.6592H57.8359C57.9727 11.5449 58.6494 10.9365 59.5518 10.9365ZM67.1816 17.1436C68.2275 17.1436 69.0273 16.624 69.4375 15.7695H69.4785V17H71.1807V7.13574H69.4785V10.998H69.4375C69.0273 10.1299 68.2002 9.60352 67.1748 9.60352C65.3564 9.60352 64.1875 11.0322 64.1875 13.3701V13.377C64.1875 15.708 65.3496 17.1436 67.1816 17.1436ZM67.6943 15.708C66.6006 15.708 65.9238 14.8193 65.9238 13.377V13.3701C65.9238 11.9277 66.6074 11.0391 67.6943 11.0391C68.7402 11.0391 69.4785 11.9551 69.4785 13.3701V13.377C69.4785 14.7988 68.7471 15.708 67.6943 15.708Z" fill="#FBFBFF"/>
<path d="M9.97917 7C9.55372 7 9.14569 7.16901 8.84485 7.46985C8.54401 7.77069 8.375 8.17872 8.375 8.60417V16.3958C8.375 16.8213 8.54401 17.2293 8.84485 17.5302C9.14569 17.831 9.55372 18 9.97917 18C10.4046 18 10.8126 17.831 11.1135 17.5302C11.4143 17.2293 11.5833 16.8213 11.5833 16.3958V8.60417C11.5833 8.17872 11.4143 7.77069 11.1135 7.46985C10.8126 7.16901 10.4046 7 9.97917 7Z" fill="white"/>
<path d="M15.0209 7C14.5955 7 14.1874 7.16901 13.8866 7.46985C13.5858 7.77069 13.4167 8.17872 13.4167 8.60417V16.3958C13.4167 16.8213 13.5858 17.2293 13.8866 17.5302C14.1874 17.831 14.5955 18 15.0209 18C15.4464 18 15.8544 17.831 16.1552 17.5302C16.4561 17.2293 16.6251 16.8213 16.6251 16.3958V8.60417C16.6251 8.17872 16.4561 7.77069 16.1552 7.46985C15.8544 7.16901 15.4464 7 15.0209 7Z" fill="white"/>
</svg>
