<svg width="40" height="40" viewBox="0 0 40 40" fill="none" xmlns="http://www.w3.org/2000/svg">
<path d="M29.3182 22.1434C29.233 22.26 28.8352 22.7558 28.5227 23.0766L28.3523 23.2515C25.9659 25.9052 20.0284 29.9004 17.017 31.1835C17.017 31.2126 15.2273 31.9708 14.375 32H14.2614C12.9545 32 11.733 31.2418 11.108 30.017C10.767 29.3463 10.4545 27.3925 10.4261 27.3633C10.1705 25.6136 10 22.9337 10 19.9854C10 16.8943 10.1705 14.0948 10.483 12.3742C10.483 12.3451 10.7955 10.7704 10.9943 10.2454C11.3068 9.48724 11.875 8.84569 12.5852 8.43742C13.1534 8.14581 13.75 8 14.375 8C15.0284 8.02916 16.25 8.4695 16.733 8.67072C19.9148 9.95383 25.9943 14.1531 28.3239 16.7193C28.7216 17.1276 29.1477 17.6233 29.2614 17.74C29.7443 18.3815 30 19.1689 30 20.0175C30 20.7728 29.7727 21.531 29.3182 22.1434" fill="#FBFBFF"/>
</svg>
